
<svg version="1.1" id="Layer_1" xmlns="http://www.w3.org/2000/svg" xmlns:xlink="http://www.w3.org/1999/xlink" x="0px" y="0px"
	 viewBox="0 0 521.6 242.8" style="enable-background:new 0 0 521.6 242.8;" xml:space="preserve">
<style type="text/css">
	.st0{fill:#39B54A;}
</style>
<g id="tM3JPd_1_">
	<g>
		<g>
			<path class="st0" d="M123.8,40c-0.4,5.1-0.8,10-1.3,15.1c-0.6,0-1.2,0.1-1.8,0c-9.6-2.6-19.3-1.9-29,0
				c-8.5,1.7-16.7,4.2-24.5,7.9c-6.4,3.1-12.2,7-17.1,12.2c-7.5,8.1-11.9,17.7-12.9,28.8c-0.9,10.5,1,20.4,5.8,29.7
				c2.3,4.4,5.5,8,9.5,10.9c4.9,3.6,10.2,6.6,16.2,8c0.4,0.1,0.6,0.4,1.1,0.7c-0.6,0.9-1.1,1.7-1.6,2.5c-3,4.2-5.3,8.8-6.2,13.9
				c-1.6,8.9,0.7,16.8,6.3,23.8c2.2,2.8,5.3,4.6,8.7,5.7c0.8,0.2,1.5,0.5,2.5,0.8c-1.3,1.8-3.4,2.4-4.7,3.7c-1.5,1.5-3,2.9-4.3,4.5
				c-1.2,1.5-2.4,3.2-3.3,5c-1,1.8-1.8,3.8-2.5,5.7c-0.6,1.9-1.1,3.9-1.4,5.8c-0.3,2-0.5,4-0.5,6c0,2.1,0.2,4.1,0.5,6.2
				c0.3,2,0.7,3.9,1,5.9c-40.2-15.5-75.6-65.5-61.2-123.2C19,56.4,80,31.2,123.8,40z"/>
			<path class="st0" d="M200.6,195.4c-0.7-2.5-1.1-4.7-1.8-6.8c-2.8-8.9-7.8-16.1-16.5-20.2c-4.9-2.3-10.1-3.4-15.5-3.7
				c-11.8-0.6-23.2,1.9-34.4,5c-9.4,2.6-18.8,4.9-28.5,6.4c-4.4,0.7-8.8,1.2-13.3,0.8c-6.9-0.6-10-5.1-11.2-10.1
				c-1-4.1,0.1-7.9,2.3-11.4c0.7-1.1,1.5-1.5,2.8-1.5c15.6-0.5,30-5,43.5-12.6c12.5-7.1,20.7-17.8,23.5-32c2.8-13.9,0.7-27-7.2-39
				c-2.2-3.4-5.1-6.1-8.3-8.6c-2.2-1.8-2.6-2.7-1.1-5.1c1-1.6,2.4-3.3,4-4.4c2.7-1.8,5.7-3.2,8.6-4.7c1.2-0.7,2.3-0.1,3.4,0.4
				c7.1,3.3,13.9,7.2,20.1,12c21.9,16.9,35.4,38.9,40.6,66.1c1.3,6.9,2,13.9,1.8,21c-0.4,16.6-4.3,32.4-12,47.2
				C201.3,194.5,201.1,194.8,200.6,195.4z"/>
			<path class="st0" d="M370.7,205.6c1.1,0.3,1.9,0.5,2.6,0.7c4.6,1.4,9.3,2.3,14.1,2.8c2.7,0.2,5.3,0,7.8-0.8
				c3.4-1,5.7-3.4,6.5-6.8c0.6-2.5,0.7-5.2,0.9-7.8c0-0.3-0.2-0.5-0.5-1.1c-0.9,0.7-1.6,1.2-2.4,1.8c-7.1,5.6-17.8,6.2-25.5,1.4
				c-3.1-2-5.5-4.7-6.9-8.1c-4.8-11.4-2.1-28.9,13.7-36.4c3.8-1.8,7.9-2.7,12-3c9.5-0.7,18.8,0.3,28.1,2.1c0.5,0.1,1.1,0.3,1.8,0.5
				c0,1.1,0.1,2.2,0,3.3c-0.4,6.1-1,12.3-1.3,18.4c-0.5,10.1-0.7,20.1-1.1,30.2c-0.1,2-0.4,4-0.8,5.9c-1.1,5.5-4.5,9.2-9.7,11.3
				c-3.7,1.5-7.6,2.2-11.5,2.2c-8.6,0.2-17-0.8-25.4-2.7c-1.1-0.3-2-0.6-2.1-1.9C371,213.8,370.9,209.9,370.7,205.6z M398.4,161.8
				c-3.3,0.1-5.7,0.6-7.9,1.8c-4.9,2.6-7.8,9-6.4,15.3c1.5,6.9,9.4,9.2,14.7,4.5c2.1-1.9,3.6-4.2,4-6.9c0.6-4.1,0.9-8.2,1.3-12.4
				c0.1-1.2-0.5-1.8-1.6-1.9C401.1,162,399.7,161.9,398.4,161.8z"/>
			<path class="st0" d="M289.3,65.7c-1.1-0.3-1.9-0.5-2.7-0.7c-6-1.8-12.1-2.9-18.4-2.8c-3.9,0-7.8,0.8-11.4,2.3
				c-7.5,3.2-11.6,9-13,16.9c-0.5,3-0.5,6,0.1,9c1.5,6.9,5.9,10.7,12.6,12.2c4.4,1,8.7,0.4,13.1-0.5c1.1-0.2,1.7-0.8,1.7-2
				c0.1-2.5,0.3-5,0.4-7.4c0-1.9-0.3-2.2-2.2-2.3c-2.1-0.1-4.1,0-6.2,0c-0.5-2.2-0.1-10.8,0.6-13c9.1,0,18.2,0,27.5,0
				c-0.1,2.6-0.2,5.1-0.4,7.5c-0.2,3.5-0.6,7-0.8,10.5c-0.3,5.5-0.4,11-0.6,16.5c-0.1,2.1,0,2.2-2,2.5c-5.2,0.7-10.4,1.4-15.7,1.9
				c-4.2,0.4-8.5,0.5-12.7,0.4c-6.6-0.2-13.2-1.1-19.4-3.7c-6.2-2.5-10.7-6.7-13.5-12.6c-6.6-14-3.7-31,7.4-41.5
				c5.4-5.1,11.8-8.1,19-9.5c7.4-1.4,14.8-1.4,22.2-0.6c3.8,0.4,7.6,1,11.4,1.5c2.3,0.3,2.4,0.5,2.5,2.7c0.1,3.4,0.3,6.7,0.4,10.1
				C289.4,63.8,289.3,64.6,289.3,65.7z"/>
			<path class="st0" d="M520,198.3c-6.3,0-12.4,0-18.7,0c0-0.8,0-1.4,0-2c0.4-7.8,0.9-15.6,1.2-23.5c0-1.1-0.2-2.2-0.4-3.3
				c-0.9-5.7-6.3-7.4-10.8-5.6c-3,1.2-5,3.5-6,6.5c-0.8,2.5-1.5,5.1-1.7,7.7c-0.5,6-0.7,12.1-1.1,18.2c0,0.5-0.1,1.1-0.1,1.6
				c-1.6,0.6-15.8,0.8-19.1,0.2c0-0.7-0.1-1.5-0.1-2.2c0.6-7.8,1.4-15.6,1.9-23.4c0.4-6.9,0.6-13.7,0.9-20.6c0-0.8,0.1-1.6,0.2-2.5
				c6.2,0,12.3,0,18.7,0c-0.1,2-0.2,3.9-0.3,6.3c0.9-0.6,1.4-0.9,1.8-1.3c4-4.2,9-5.9,14.6-6.2c3.5-0.2,7,0,10.5,0.9
				c5.4,1.5,10.3,5.5,10.1,13.1c-0.2,7-0.5,14-0.8,21.1c-0.2,4.1-0.3,8.3-0.5,12.5C520.2,196.6,520.1,197.3,520,198.3z"/>
			<path class="st0" d="M330.5,64.9c5,0.1,9.7,1,14.2,3c8.9,4,13.5,10.9,13.8,20.6c0.1,3.1,0,6.2-0.8,9.3c-2.4,8.3-7.5,14-15.7,16.8
				c-8.1,2.8-16.3,2.9-24.5,0.4c-10-3.1-15.8-9.8-17-20.3c-1-8.9,1.5-16.6,8.4-22.6c4.1-3.6,9-5.5,14.2-6.4
				C325.5,65.3,328,65.2,330.5,64.9z M330.1,78.8c-4.5,0-7.8,2.2-9.5,6.2c-1.4,3.5-1.8,7.1-1,10.8c0.9,4.1,3.9,7,7.9,7.6
				c3.9,0.6,8.1-1.3,10.1-4.9c2.2-4.1,2.7-8.5,1.5-13C337.9,81.2,334.7,78.8,330.1,78.8z"/>
			<path class="st0" d="M330.4,148c5.1,0,10,1,14.7,3.2c8.6,4,13.1,10.9,13.4,20.4c0.1,3.1,0.1,6.2-0.8,9.3
				c-2.4,8.3-7.5,14-15.6,16.8c-8.7,3-17.6,3-26.3-0.2c-9-3.3-14.1-9.9-15.2-19.4c-1.1-8.9,1.3-16.6,8.1-22.7
				c4.1-3.7,9.1-5.6,14.4-6.6C325.4,148.4,327.9,148.3,330.4,148z M330.1,161.9c-4.5,0-7.9,2.2-9.5,6.2c-1.4,3.5-1.8,7.1-1,10.8
				c0.9,4.1,3.9,7,7.9,7.6c4,0.6,8.1-1.3,10.1-4.9c2.2-4.1,2.7-8.5,1.5-13C337.9,164.2,334.7,161.9,330.1,161.9z"/>
			<path class="st0" d="M265.3,134.7c-1.1,17.1-2.2,34.1-2.8,51.4c10.1,1,19.9,0.3,30,0.1c0.4,4.8-0.4,9.3-0.7,14
				c-17.1,0-33.9,0-51.1,0c0.2-5.5,1.1-11,1.4-16.4c0.3-5.4,0.8-10.8,1.1-16.2c0.3-5.5,0.6-11,0.8-16.5c0.2-5.4,0.3-10.8,0.5-16.2
				C246.2,134.3,262.6,134.1,265.3,134.7z"/>
			<path class="st0" d="M399.7,115c0.8-11.6,1.6-23.2,2-35.1c-1.9-0.1-3.5-0.2-5.4-0.3c-0.6-4.3,0.2-8.4,0.4-12.9c2.2,0,4.2,0,6.4,0
				c0.1-0.9,0.3-1.5,0.3-2.1c0.1-2.2,0.2-4.5,0.4-6.7c0.5-6,4-9.9,9.9-10.9c6.2-1,12.2-0.6,18.3,0.9c1.2,0.3,1.8,0.7,1.8,2
				c0,3.3,0.2,6.7,0.3,10.2c-0.5,0-1-0.1-1.5-0.2c-1.8-0.3-3.6-0.9-5.4-1c-1.2-0.1-2.6,0-3.8,0.4c-2.5,0.7-4.1,3.9-3.4,6.4
				c0.2,0.9,0.9,1,1.7,1c2.3,0,4.6,0,7,0c0.8,0,1.6,0.1,2.2,0.1c0,2.9,0.2,5.6,0,8.2c-0.4,4.5-0.5,4.5-5,4.5c-1.7,0-3.5,0.1-5.2,0.2
				c-0.2,1.7-0.5,3.1-0.5,4.6c-0.2,5.8-0.4,11.7-0.7,17.5c-0.2,3.8-0.3,7.7-0.5,11.5c-0.1,1.8-0.4,2.2-1.9,2.2c-5.5,0-11,0-16.5,0
				C400.3,115.3,400.1,115.2,399.7,115z"/>
			<path class="st0" d="M366.7,115.2c1.1-21.9,2.2-43.6,3.2-65.6c6.2,0,12.4,0,18.8,0c-0.4,7.2-0.8,14.4-1.2,21.6
				c-0.4,7.3-0.9,14.7-1.2,22c-0.3,7.2-0.5,14.5-0.8,21.7C383.7,115.5,370,115.7,366.7,115.2z"/>
			<path class="st0" d="M434.8,149.4c6.6,0,12.7,0,19.1,0c0.1,5.6-0.8,10.9-1,16.3c-0.2,5.4-0.4,10.7-0.4,16c-0.1,5.4,0,10.8,0,16.1
				c-2,0.6-17.8,0.7-20,0.2c0.5-8.1,1.2-16.2,1.5-24.3C434.4,165.8,434.5,157.8,434.8,149.4z"/>
			<path class="st0" d="M128.6,0c3.5,0,6.8-0.1,10.1,0c5.4,0.2,10.6,1.2,15.8,2.4c2.2,0.5,4.6,0.5,6.9,0.6c1.1,0,1.8,0.5,2.2,1.5
				c1.4,3.7,2.6,7.4,2.2,11.4c-0.2,2.1-0.2,4.3-0.5,6.4c-0.3,2.4-0.8,2.8-3.3,2.8c-1,0-2.1-0.1-3.1-0.2c-8.2-0.9-16.4-0.9-24.6-0.8
				c-1.6,0-3.3,0.2-5.3,0.4c0,22.3,0,44.7,0,67.1C128.2,90.1,128,3.1,128.6,0z"/>
			<path class="st0" d="M435.6,142c0-3.5,0-6.9,0-10.2c1.9-0.6,16.2-0.6,18.6-0.1c-0.1,3.3-0.3,6.7-0.4,10
				C452.1,142.4,439,142.6,435.6,142z"/>
		</g>
	</g>
</g>
</svg>
